<svg width="80" height="80" viewBox="0 0 80 80" fill="none" xmlns="http://www.w3.org/2000/svg">
<path d="M25 36.6667H15.3333C13.4665 36.6667 12.5331 36.6667 11.82 37.03C11.1928 37.3496 10.6829 37.8595 10.3633 38.4867C10 39.1997 10 40.1332 10 42V70M55 36.6667H64.6667C66.5335 36.6667 67.4669 36.6667 68.18 37.03C68.8072 37.3496 69.3171 37.8595 69.6367 38.4867C70 39.1997 70 40.1332 70 42V70M55 70V20.6667C55 16.933 55 15.0661 54.2734 13.6401C53.6342 12.3856 52.6143 11.3658 51.3599 10.7266C49.9339 10 48.067 10 44.3333 10H35.6667C31.933 10 30.0661 10 28.6401 10.7266C27.3856 11.3658 26.3658 12.3856 25.7266 13.6401C25 15.0661 25 16.933 25 20.6667V70M73.3333 70H6.66666M36.6667 23.3333H43.3333M36.6667 36.6667H43.3333M36.6667 50H43.3333" stroke="white" stroke-width="4" stroke-linecap="round" stroke-linejoin="round"/>
</svg>
