<svg width="80" height="80" viewBox="0 0 80 80" fill="none" xmlns="http://www.w3.org/2000/svg">
<path d="M73.3333 30H6.66667M46.6667 58.3333L55 50L46.6667 41.6667M33.3333 41.6667L25 50L33.3333 58.3333M6.66667 26L6.66667 54C6.66667 59.6005 6.66667 62.4008 7.75661 64.5399C8.71534 66.4215 10.2451 67.9513 12.1268 68.9101C14.2659 70 17.0661 70 22.6667 70H57.3333C62.9339 70 65.7341 70 67.8732 68.9101C69.7549 67.9513 71.2847 66.4215 72.2434 64.5399C73.3333 62.4008 73.3333 59.6005 73.3333 54V26C73.3333 20.3995 73.3333 17.5992 72.2434 15.4601C71.2847 13.5785 69.7549 12.0487 67.8732 11.0899C65.7341 10 62.9339 10 57.3333 10L22.6667 10C17.0661 10 14.2659 10 12.1268 11.0899C10.2451 12.0487 8.71534 13.5785 7.75661 15.4601C6.66667 17.5992 6.66667 20.3995 6.66667 26Z" stroke="white" stroke-width="4" stroke-linecap="round" stroke-linejoin="round"/>
</svg>
