<svg width="80" height="80" viewBox="0 0 80 80" fill="none" xmlns="http://www.w3.org/2000/svg">
<path d="M60 43.3333L55.6679 21.6727C55.4259 20.4628 55.3049 19.8578 55.0107 19.3651C54.7505 18.9295 54.3944 18.5591 53.9695 18.282C53.4888 17.9686 52.889 17.8238 51.6895 17.5343L6.66666 6.66667M6.66666 6.66667L17.5342 51.6895C17.8238 52.889 17.9685 53.4888 18.282 53.9695C18.5591 54.3944 18.9295 54.7505 19.3651 55.0107C19.8578 55.3049 20.4627 55.4259 21.6727 55.6679L43.3333 60M6.66666 6.66667L31.9533 31.9533M53.7712 69.5621L69.5621 53.7712C70.8821 52.4512 71.5422 51.7912 71.7895 51.0301C72.007 50.3606 72.007 49.6394 71.7895 48.9699C71.5422 48.2089 70.8821 47.5488 69.5621 46.2288L67.1046 43.7712C65.7845 42.4512 65.1245 41.7912 64.3634 41.5439C63.6939 41.3263 62.9727 41.3263 62.3033 41.5439C61.5422 41.7912 60.8821 42.4512 59.5621 43.7712L43.7712 59.5621C42.4512 60.8822 41.7911 61.5422 41.5438 62.3033C41.3263 62.9728 41.3263 63.6939 41.5438 64.3634C41.7911 65.1245 42.4512 65.7845 43.7712 67.1046L46.2288 69.5621C47.5488 70.8822 48.2088 71.5422 48.9699 71.7895C49.6394 72.007 50.3606 72.007 51.03 71.7895C51.7911 71.5422 52.4512 70.8822 53.7712 69.5621ZM43.3333 36.6667C43.3333 40.3486 40.3486 43.3333 36.6667 43.3333C32.9848 43.3333 30 40.3486 30 36.6667C30 32.9848 32.9848 30 36.6667 30C40.3486 30 43.3333 32.9848 43.3333 36.6667Z" stroke="white" stroke-width="4" stroke-linecap="round" stroke-linejoin="round"/>
</svg>
