<svg width="80" height="80" viewBox="0 0 80 80" fill="none" xmlns="http://www.w3.org/2000/svg">
<path d="M40 53.3333V70M60 70L46.8287 59.0239C44.3994 56.9995 43.1848 55.9873 41.8289 55.6005C40.6335 55.2595 39.3665 55.2595 38.1711 55.6005C36.8153 55.9873 35.6006 56.9995 33.1714 59.0239L20 70M26.6667 36.6667V40M40 30V40M53.3334 23.3333V40M73.3334 10H6.66669M10 10H70V37.3333C70 42.9339 70 45.7341 68.9101 47.8732C67.9513 49.7549 66.4215 51.2847 64.5399 52.2434C62.4008 53.3333 59.6005 53.3333 54 53.3333H26C20.3995 53.3333 17.5992 53.3333 15.4601 52.2434C13.5785 51.2847 12.0487 49.7549 11.09 47.8732C10 45.7341 10 42.9339 10 37.3333V10Z" stroke="white" stroke-width="4" stroke-linecap="round" stroke-linejoin="round"/>
</svg>
